<svg width="181" height="172" viewBox="0 0 181 172" fill="none" xmlns="http://www.w3.org/2000/svg">
<path fill-rule="evenodd" clip-rule="evenodd" d="M141.596 132.592C141.596 124.507 139.122 117 134.889 110.788C137.068 111.168 139.31 111.366 141.597 111.366C163.011 111.366 180.371 94.0062 180.371 72.5922C180.371 51.1782 163.011 33.8188 141.597 33.8188C132.054 33.8188 123.316 37.2665 116.561 42.9844C116.648 41.9222 116.693 40.8479 116.693 39.7632C116.693 18.3492 99.3333 0.989746 77.9193 0.989746C56.5053 0.989746 39.1459 18.3492 39.1459 39.7632C39.1459 47.3041 41.2986 54.3422 45.023 60.2965C43.106 60.0049 41.143 59.8537 39.1446 59.8537C17.7306 59.8537 0.371094 77.2132 0.371094 98.6272C0.371094 120.041 17.7306 137.401 39.1446 137.401C48.7454 137.401 57.5312 133.911 64.3029 128.131C64.1353 129.595 64.0491 131.083 64.0491 132.592C64.0491 154.006 81.4086 171.365 102.823 171.365C124.237 171.365 141.596 154.006 141.596 132.592Z" fill="#3E4CF7"/>
</svg>
